# xmcd
#
# Track frame offsets:
#	150
#	17897
#	27780
#	38735
#	58890
#	71747
#	80565
#	92360
#	104450
#	121704
#	132967
#	144197
#	156957
#	167547
#	182237
#	193815
#	204002
#	211860
#	222650
#	232555
#	246647
#	259375
#	269950
#	280585
#	290850
#	301915
#
# Disc length: 4146 seconds
#
# Revision: 3
# Processed by: cddbd v1.5.2PL0 Copyright (c) Steve Scherf et al.
# Submitted via: audiograbber 1.83.01
#
DISCID=8410301a
DTITLE=Vencedores por Cristo - Louvor I e II
DYEAR=1975
DGENRE=Gospel
TTITLE0=Louva a Deus
TTITLE1=Enquanto Oramos
TTITLE2=Consagração
TTITLE3=Salmo 108
TTITLE4=Buscai Primeiro
TTITLE5=O Deus Que Te Guarda
TTITLE6=Pai, Eu Te Adoro
TTITLE7=Minha Paz Vos Dou
TTITLE8=Pai de Amor
TTITLE9=Faze-Me Chegar
TTITLE10=Mente e Coração
TTITLE11=Glória para Sempre
TTITLE12=Então Se Verá
TTITLE13=Exaltar-te-ei - Levantai, ó Portas
TTITLE14=Rendei Graças
TTITLE15=Deus Está Presente
TTITLE16=Se Tão Somente
TTITLE17=Bendizei ao Senhor
TTITLE18=Meu Coração
TTITLE19=Para o Louvor da Sua Glória
TTITLE20=Salmos de Louvor -  Louvado Seja Deus
TTITLE21=Vaso Novo
TTITLE22=Hosana
TTITLE23=Jerusalém
TTITLE24=Ao Que Está Sentado
TTITLE25=Louva a Deus (reprise)
EXTD=
EXTT0=
EXTT1=
EXTT2=
EXTT3=
EXTT4=
EXTT5=
EXTT6=
EXTT7=
EXTT8=
EXTT9=
EXTT10=
EXTT11=
EXTT12=
EXTT13=
EXTT14=
EXTT15=
EXTT16=
EXTT17=
EXTT18=
EXTT19=
EXTT20=
EXTT21=
EXTT22=
EXTT23=
EXTT24=
EXTT25=
PLAYORDER=
